<svg id="Layer_1" data-name="Layer 1" xmlns="http://www.w3.org/2000/svg" viewBox="0 0 259.18 129.26">
  <defs>
    <style>
      .cls-1 {
        isolation: isolate;
      }

      .cls-2 {
        fill: #110f3c;
      }

      .cls-3 {
        fill: #a3519f;
      }
    </style>
  </defs>
  <title>logoalt</title>
  <g class="cls-1">
    <path class="cls-2" d="M94,60.71h18v18q0,6-3.82,9a13,13,0,0,1-8.14,3h-12a12.11,12.11,0,0,1-12-12v-30a11.67,11.67,0,0,1,3.49-8.46,11.49,11.49,0,0,1,8.53-3.56h12q11.3,0,12,12h-6q-.72-6-6-6H94a5.75,5.75,0,0,0-4.21,1.76,5.83,5.83,0,0,0-1.76,4.28v30A5.83,5.83,0,0,0,89.84,83,5.74,5.74,0,0,0,94,84.76q5.76-.29,6-6v-12H94Z" transform="translate(-76.05 -36.73)"/>
    <path class="cls-2" d="M160.07,72.73h-24v6A5.86,5.86,0,0,0,137.86,83a5.69,5.69,0,0,0,4.21,1.8h6q6,0,6-6h6q-1.37,12-12,12h-12a12.11,12.11,0,0,1-12-12v-18a11.44,11.44,0,0,1,3.56-8.42,11.62,11.62,0,0,1,8.46-3.53h12a12,12,0,0,1,12,12Zm-24-6h12v-6a5.75,5.75,0,0,0-1.76-4.21,5.83,5.83,0,0,0-4.28-1.76,6,6,0,0,0-6,6Z" transform="translate(-76.05 -36.73)"/>
    <path class="cls-2" d="M208.1,72.73h-24v6A5.86,5.86,0,0,0,185.88,83a5.69,5.69,0,0,0,4.21,1.8h6q6,0,6-6h6q-1.37,12-12,12h-12a12.11,12.11,0,0,1-12-12v-18a11.44,11.44,0,0,1,3.56-8.42,11.62,11.62,0,0,1,8.46-3.53h12a12,12,0,0,1,12,12Zm-24-6h12v-6a5.75,5.75,0,0,0-1.76-4.21,5.84,5.84,0,0,0-4.28-1.76,6,6,0,0,0-6,6Z" transform="translate(-76.05 -36.73)"/>
    <path class="cls-2" d="M220.12,90.73v-54h12v27l18-15h12L237,69.71l25.13,21h-12l-18-15v15Z" transform="translate(-76.05 -36.73)"/>
  </g>
  <g class="cls-1">
    <path class="cls-3" d="M125.44,128.19l-3.82,3.66a12.79,12.79,0,0,1-.54-3.63,11.88,11.88,0,0,1,4.5-9.7q4.5-3.66,12-3.66h1.85q-1.05,5.37-1.27,7.22l-1.27,11.46-.3,2.6a10.83,10.83,0,0,1-1.44,4.8,10.22,10.22,0,0,1-4,2.88l6.79.35-2.81,2.72-11.41-.52,3-2.91,2.55.28q2.86-1.8,3.52-7.38l.26-2.27,1.82-16.41h-.73q-9.76,0-9.76,6.45A8.47,8.47,0,0,0,125.44,128.19Z" transform="translate(-76.05 -36.73)"/>
    <path class="cls-3" d="M149,145.55,145.48,147l.07-.66.19-1.73.19-1.64,1.22-10.87.14-1.24q.14-1.45.14-2.34,0-1.5-.75-1.5-1.76,0-3.78,4-.54-.45-.54-.77,0-1.41,2.57-3.83t4-2.43q2,0,2,2.58,0,.66-.12,1.76l-.19,1.9-.19,1.59-.19,1.66a30.84,30.84,0,0,1,6.06-6.81q3.29-2.68,5.61-2.68t2.27,3.16A24.7,24.7,0,0,1,164,130l-1.27,8.73a29.94,29.94,0,0,0-.39,4.14q0,1.22.66,1.22,1.62,0,4-4.29.56.35.56.73,0,1.52-2.62,4T160.68,147q-1.83,0-1.83-2.62a39.55,39.55,0,0,1,.49-5.32l.83-5.67a32.51,32.51,0,0,0,.4-4.38q0-1.85-1.29-1.85-3,0-6.08,4.07a17.47,17.47,0,0,0-3.59,8.73Z" transform="translate(-76.05 -36.73)"/>
    <path class="cls-3" d="M186.07,124.55l-2.67,3.21a9.4,9.4,0,0,0-3.59-.77,5.56,5.56,0,0,0-4.84,2.6,12.52,12.52,0,0,0-1.77,7.13,9.22,9.22,0,0,0,1.28,5.13,3.85,3.85,0,0,0,3.34,1.95q3.49,0,5.48-4.57a1.63,1.63,0,0,1,.52,1.05q0,1.95-3,4.32a9.34,9.34,0,0,1-5.57,2.38,4.88,4.88,0,0,1-4-2,7.9,7.9,0,0,1-1.56-5.07,16.87,16.87,0,0,1,4.12-11q4.13-5,9.16-5A7.25,7.25,0,0,1,186.07,124.55Z" transform="translate(-76.05 -36.73)"/>
    <path class="cls-3" d="M193.32,147q-5.27,0-5.27-7a17.28,17.28,0,0,1,4.13-10.84q4.13-5.21,8.55-5.21,5.34,0,5.34,7a17.26,17.26,0,0,1-4.12,10.85Q197.82,147,193.32,147Zm2.84-2.62q2.7,0,4.51-3a14.21,14.21,0,0,0,1.82-7.48q0-7.31-4.55-7.31-2.67,0-4.49,3a14.22,14.22,0,0,0-1.82,7.46Q191.63,144.36,196.15,144.36Z" transform="translate(-76.05 -36.73)"/>
    <path class="cls-3" d="M228.17,124.86l-.14.52-.26,1.24q-.3,1.36-.33,1.5l-.94,8.58q-.23,2.16-.49,7.57a46.34,46.34,0,0,1-1.29,10,14.11,14.11,0,0,1-3.4,5.81Q215.75,166,209.44,166a6.79,6.79,0,0,1-5.06-2.06,7.07,7.07,0,0,1-2-5.15q0-6.3,7.71-12.43-1.64-1.29-1.64-4.55a17.91,17.91,0,0,1,4.66-12.32,14.31,14.31,0,0,1,11-5.23A10.36,10.36,0,0,1,228.17,124.86Zm-5.07,12.32q-6.32,9.67-11.45,9.67l-.75,0q-5.46,5.48-5.46,9.76a6.5,6.5,0,0,0,2.08,4.9,7.18,7.18,0,0,0,5.15,2,8,8,0,0,0,7.28-4.17q1.92-3.21,2.68-15.3Q222.89,139.4,223.1,137.18Zm1-9.39a7.16,7.16,0,0,0-4.24-1.2q-3.21,0-5.43,4a20.35,20.35,0,0,0-2.22,9.91q0,3,1.81,3,2.06,0,5-3.19a17.17,17.17,0,0,0,4.74-10Z" transform="translate(-76.05 -36.73)"/>
    <path class="cls-3" d="M237.42,145.55,233.91,147l.07-.66.19-1.73.19-1.64,1.22-10.87.14-1.24q.14-1.45.14-2.34,0-1.5-.75-1.5-1.76,0-3.78,4-.54-.45-.54-.77,0-1.41,2.57-3.83t4-2.43q2,0,2,2.58a17.49,17.49,0,0,1-.12,1.76l-.19,1.9-.19,1.59-.19,1.66a30.84,30.84,0,0,1,6.06-6.81q3.29-2.68,5.61-2.68t2.27,3.16a24.7,24.7,0,0,1-.25,2.88l-1.27,8.73a29.86,29.86,0,0,0-.39,4.14q0,1.22.66,1.22,1.62,0,4-4.29.56.35.56.73,0,1.52-2.62,4T249.11,147q-1.83,0-1.83-2.62a39.55,39.55,0,0,1,.49-5.32l.83-5.67A32.51,32.51,0,0,0,249,129q0-1.85-1.29-1.85-3,0-6.08,4.07a17.47,17.47,0,0,0-3.59,8.73Z" transform="translate(-76.05 -36.73)"/>
    <path class="cls-3" d="M269.54,139.55q.63.38.63.73,0,.84-2,3.33Q265.39,147,263,147q-1.71,0-1.71-2.27,0-1,.7-5.9l.91-6.37.23-1.62.19-1.29a10,10,0,0,0,.12-1.38q0-1.17-.65-1.17-1.82,0-3.92,4a1.11,1.11,0,0,1-.44-.8q0-1.43,2.64-3.84t4.21-2.41q1.76,0,1.76,2.43a19.08,19.08,0,0,1-.19,1.92l-.21,1.57q0,.19-.26,1.9l-1,6.7-.23,1.5a27.42,27.42,0,0,0-.3,3q0,1,.58,1Q267.46,143.94,269.54,139.55Zm-4.69-18.63,2-4.85a11.51,11.51,0,0,0,4.31-3,1.15,1.15,0,0,1,.23.68Q271.36,116.91,264.85,120.92Z" transform="translate(-76.05 -36.73)"/>
    <path class="cls-3" d="M279.71,127.27l-1.13,10.36q-.3,2.79-.3,4.13,0,2.65,1.8,2.65t4-3.19a1.35,1.35,0,0,1,.35.8q0,1.31-2.31,3.14a6.89,6.89,0,0,1-4,1.83q-3.33,0-3.33-4.27,0-1.57.4-5.09l1.12-10.36h-4.92l2.73-2.72h2.5l.5-4.27,3.45-1.15-.57,5.41H290l-2.75,2.72Z" transform="translate(-76.05 -36.73)"/>
    <path class="cls-3" d="M294.21,147q-5.27,0-5.27-7a17.28,17.28,0,0,1,4.13-10.84q4.13-5.21,8.55-5.21,5.34,0,5.34,7a17.26,17.26,0,0,1-4.12,10.85Q298.71,147,294.21,147Zm2.84-2.62q2.7,0,4.51-3a14.21,14.21,0,0,0,1.82-7.48q0-7.31-4.55-7.31-2.67,0-4.49,3a14.22,14.22,0,0,0-1.82,7.46Q292.53,144.36,297.05,144.36Z" transform="translate(-76.05 -36.73)"/>
    <path class="cls-3" d="M312,147.36a7.64,7.64,0,0,0-2.73-3.33l3.46-3.3a10.32,10.32,0,0,1,2.71,3.3Z" transform="translate(-76.05 -36.73)"/>
    <path class="cls-3" d="M321.88,147.36a7.64,7.64,0,0,0-2.73-3.33l3.46-3.3a10.32,10.32,0,0,1,2.71,3.3Z" transform="translate(-76.05 -36.73)"/>
    <path class="cls-3" d="M331.8,147.36a7.64,7.64,0,0,0-2.73-3.33l3.46-3.3a10.32,10.32,0,0,1,2.71,3.3Z" transform="translate(-76.05 -36.73)"/>
  </g>
</svg>
